HIERARCHY
ROOT Hips
{
  OFFSET -33.9132 29.2015 117.021
  CHANNELS 6 Xposition Yposition Zposition Zrotation Xrotation Yrotation
  JOINT LeftUpLeg
  {
    OFFSET 8.64259 1.95398 -2.38835
    CHANNELS 3 Zrotation Xrotation Yrotation
    JOINT LeftLeg
    {
      OFFSET 43.7702 0 0
      CHANNELS 3 Zrotation Xrotation Yrotation
      JOINT LeftFoot
      {
        OFFSET 40.6238 0 0
        CHANNELS 3 Zrotation Xrotation Yrotation
        JOINT LeftToeBase
        {
          OFFSET 12.7242 0 0
          CHANNELS 3 Zrotation Xrotation Yrotation
          End Site
          {
            OFFSET 0 0 0
          }
        }
      }
    }
  }
  JOINT RightUpLeg
  {
    OFFSET -8.2249 1.95398 -2.59336
    CHANNELS 3 Zrotation Xrotation Yrotation
    JOINT RightLeg
    {
      OFFSET 43.5653 0 0
      CHANNELS 3 Zrotation Xrotation Yrotation
      JOINT RightFoot
      {
        OFFSET 40.6238 0 0
        CHANNELS 3 Zrotation Xrotation Yrotation
        JOINT RightToeBase
        {
          OFFSET 12.7242 0 0
          CHANNELS 3 Zrotation Xrotation Yrotation
          End Site
          {
            OFFSET 0 0 0
          }
        }
      }
    }
  }
  JOINT Spine
  {
    OFFSET 0.165834 0.87714 6.61349
    CHANNELS 3 Zrotation Xrotation Yrotation
    JOINT Spine1
    {
      OFFSET 7.38963 1.71661e-005 0
      CHANNELS 3 Zrotation Xrotation Yrotation
      JOINT Spine2
      {
        OFFSET 11.9445 1.14441e-005 0
        CHANNELS 3 Zrotation Xrotation Yrotation
        JOINT Spine3
        {
          OFFSET 14.7254 4.19617e-005 0
          CHANNELS 3 Zrotation Xrotation Yrotation
          JOINT Spine4
          {
            OFFSET 10.9679 0 0
            CHANNELS 3 Zrotation Xrotation Yrotation
            JOINT RightShoulder
            {
              OFFSET 2.46616 -1.6653 3.69651
              CHANNELS 3 Zrotation Xrotation Yrotation
              JOINT RightArm
              {
                OFFSET 13.0012 0 0
                CHANNELS 3 Zrotation Xrotation Yrotation
                JOINT RightForeArm
                {
                  OFFSET 28.7848 1.62311e-005 0
                  CHANNELS 3 Zrotation Xrotation Yrotation
                  JOINT RightHand
                  {
                    OFFSET 26.5688 1.62095e-005 0
                    CHANNELS 3 Zrotation Xrotation Yrotation
                    End Site
                    {
                      OFFSET 0 0 0
                    }
                  }
                }
              }
            }
            JOINT LeftShoulder
            {
              OFFSET 2.38034 -1.29275 -3.7523
              CHANNELS 3 Zrotation Xrotation Yrotation
              JOINT LeftArm
              {
                OFFSET 16.3182 6.07031e-005 0
                CHANNELS 3 Zrotation Xrotation Yrotation
                JOINT LeftForeArm
                {
                  OFFSET 27.0901 0 0
                  CHANNELS 3 Zrotation Xrotation Yrotation
                  JOINT LeftHand
                  {
                    OFFSET 24.5451 1.51738e-005 0
                    CHANNELS 3 Zrotation Xrotation Yrotation
                    End Site
                    {
                      OFFSET 0 0 0
                    }
                  }
                }
              }
            }
            JOINT Neck
            {
              OFFSET 5.0226 -0.0266342 0
              CHANNELS 3 Zrotation Xrotation Yrotation
              JOINT Head
              {
                OFFSET 6.69364 2.86102e-005 0
                CHANNELS 3 Zrotation Xrotation Yrotation
                End Site
                {
                  OFFSET 0 0 0
                }
              }
            }
          }
        }
      }
    }
  }
}
MOTION
Frames:	9
Frame Time:	0.0416667
-47.1613 104.706 32.0835 87.1012 27.8707 89.5782 -171.877 38.7122 89.8569 -44.507 -0.0789006 -2.41178 72.1563 8.51316 1.30376 7.79837 -15.0779 6.50559 174.131 -4.49123 88.5038 -22.7174 -26.4051 -3.64343 55.8502 3.64507 0.22361 20.2455 2.70723 3.80469 1.66012 7.83533 -89.4232 11.1879 3.57196 0.797697 -0.478333 3.6036 0.639516 -23.0436 3.16697 1.83526 -3.03095 3.16695 1.83525 94.6949 -13.6345 -102.719 19.1377 19.0474 -3.21416 -16.0856 -28.0367 -28.3564 -18.8896 3.63237 -27.5527 -83.0155 -30.4884 86.8767 12.6942 -18.8526 2.47958 -8.26621 14.7162 -1.70697 22.1098 -2.02835 -12.4215 -16.3421 2.20959 -3.10475 -9.59642 2.32095 -0.933563 
-35.3956 108.561 20.9446 85.8692 21.7489 92.6998 -174.543 28.3421 94.1931 -14.0207 -4.84175 -1.6761 73.6953 10.6161 -1.63003 22.6007 -8.43238 10.8271 169.749 -8.04599 82.9603 -30.4965 -17.0065 -2.02222 56.8971 3.58683 0.93948 19.7584 3.06834 3.36269 2.30129 7.62853 -89.7008 11.6276 4.71793 0.097955 -0.0346657 4.71768 -0.110263 -22.6339 4.46988 1.51421 -2.62124 4.46986 1.51421 95.4367 -10.6012 -102.015 18.9628 21.255 11.273 -32.2485 -26.8866 -53.3149 -18.6767 4.12286 -30.389 -81.0446 -31.1659 90.7637 17.9313 -12.4488 19.777 -7.85283 17.3437 -4.07216 14.4662 -1.71921 -14.8777 -24.9213 2.12142 1.55457 -4.78381 2.34446 -2.54956 
-23.5597 108.03 9.1862 90.7048 18.3653 94.4755 -175.499 20.1564 96.9331 -6.78958 -6.84907 0.942669 77.0042 10.8149 -3.52814 26.043 -8.80544 15.6527 164.684 -17.4278 76.1808 -39.8404 -23.1148 -4.95358 57.3125 3.2226 1.59619 22.5261 1.55812 4.35447 2.6497 7.70597 -90.4272 11.503 5.07208 -1.3683 -0.15896 5.00696 -1.59071 -22.7741 5.24817 0.223518 -2.76145 5.2482 0.223521 96.0311 -10.1812 -100.464 18.515 22.5335 22.1454 -40.6377 -23.3875 -65.1545 -17.4633 4.62314 -35.857 -78.2869 -28.2835 96.0714 14.1655 -11.1202 33.3024 -7.10829 16.1459 -5.09174 10.9983 -1.09024 -12.7424 -33.4908 2.19597 2.74147 -1.82727 2.67846 -1.17341 
-12.216 102.494 -1.68155 92.2078 17.5181 96.418 -171.03 15.3377 97.9033 -8.61284 -4.11957 -1.64768 70.9807 10.2021 -2.80679 21.0725 -9.41246 10.8422 162.295 -22.7753 70.8376 -46.956 -19.5091 -8.09664 63.77 -1.49122 -0.572204 25.2358 0.644204 3.51546 2.71218 7.40378 -90.8633 12.1234 4.98355 -2.27248 0.459697 4.8787 -2.48996 -22.15 5.4355 -0.6658 -2.1373 5.43552 -0.665796 96.1046 -12.2701 -99.4036 18.9937 22.0455 36.3961 -40.4182 -18.3734 -70.0835 -16.1137 4.45491 -37.1881 -76.535 -26.7287 99.6335 11.1961 -11.8042 40.2899 -6.38304 15.2294 -5.74703 14.1656 -0.838397 -9.29092 -34.9123 2.26832 1.23876 -2.37728 2.55691 0.0164995 
-3.00677 96.6436 -10.6929 91.6379 21.5429 92.2226 -168.078 25.3483 91.4935 -37.7378 7.29598 -5.14887 72.2047 8.37171 1.32936 10.774 -13.0213 6.33705 166.267 -19.5981 71.5278 -62.4489 -8.13953 -10.2076 66.8213 -4.7864 -2.95813 23.7234 0.839861 5.04546 2.05384 7.5336 -90.1867 11.8439 3.99764 -0.770464 0.179081 3.95991 -0.945932 -22.4065 4.04389 0.468521 -2.39383 4.04391 0.468521 96.3067 -14.7137 -98.0365 29.5144 14.6763 39.322 -40.6879 -23.132 -65.528 -19.5766 4.60914 -32.3519 -78.8083 -36.0597 95.2698 8.60666 -16.9383 34.2216 -6.17894 12.6121 -2.73146 12.6016 -0.529783 -7.72968 -26.9387 2.66962 1.84544 -4.26581 2.92742 -0.693503 
3.71277 94.8052 -16.6302 93.1771 25.1915 83.2695 -167.655 17.2038 84.0466 -40.655 7.13393 -7.03416 81.4545 14.2463 -1.15845 14.1718 -12.8993 9.35798 179.373 -0.978846 76.8449 -87.9301 -6.72744 -9.24316 67.4055 -6.03046 -4.96538 20.5027 1.67617 6.61686 1.04247 7.97221 -88.9772 10.8962 2.54796 1.78183 -0.773354 2.62392 1.66792 -23.3111 1.8949 2.46518 -3.2985 1.89489 2.46517 95.3623 -21.4139 -98.1602 44.9408 8.5818 16.6119 -19.6639 -40.8291 -26.7224 -23.2782 4.67368 -28.2603 -82.2156 -47.6632 90.2499 0.281242 -19.7627 7.10649 -8.4908 12.9213 0.462434 10.2164 -0.497495 -8.47258 -24.5867 4.63764 1.60364 -7.51307 4.88703 -0.598884 
10.0273 96.8269 -21.9681 93.7832 28.5431 84.746 -170.628 8.10311 85.1888 -33.1316 7.45199 -5.56764 82.4553 14.747 -1.65866 14.8059 -13.4149 10.8071 -175.967 15.1905 86.9465 -85.684 -4.38104 -7.18738 68.3525 -6.42013 -4.30735 23.209 0.609033 6.54108 0.209191 7.98461 -89.1623 10.8978 0.803797 1.58988 -0.773973 0.872991 1.55297 -23.301 0.288923 1.75789 -3.28839 0.288939 1.75789 94.5563 -23.1594 -99.5173 54.1094 8.04745 8.88012 -4.98266 -50.2714 -4.60577 -20.4346 3.78309 -26.5665 -85.5191 -52.7369 85.8312 -6.61417 -16.429 -17.2051 -7.47208 26.1743 -3.67069 15.2703 -1.6667 -13.5349 -25.9806 6.18639 2.808 -7.21661 6.57307 0.146327 
16.926 99.6114 -27.5819 95.1654 35.0915 87.1745 -173.888 -1.18137 86.7615 -25.1621 10.1723 -1.71524 76.1152 10.6484 0.215597 20.7165 -10.3647 12.1197 -178.69 23.065 93.7042 -56.5488 1.0958 -4.50412 69.5626 -6.70974 -3.47802 21.1091 1.57155 6.1694 -0.638183 8.29747 -89.6655 10.2825 -1.1185 0.760555 -1.38819 -1.08397 0.809044 -23.9266 -1.29537 0.389202 -3.91395 -1.29538 0.389195 94.0335 -24.7876 -100.176 56.3356 8.71642 13.179 -5.83679 -49.0105 -5.79566 -17.8609 3.08962 -25.4388 -86.6847 -46.3769 83.1026 -12.6475 -9.29898 -41.6103 -9.42606 26.6357 -4.05063 16.3782 -2.81303 -19.4617 -24.0146 7.08235 0.860321 -6.27509 7.21816 2.64575 
24.73 100.06 -34.1139 95.6954 41.9549 89.4815 -173.608 -7.08235 90.5627 -24.1855 16.4119 0.981349 73.7107 8.01764 0.702565 18.7282 -11.0338 11.0682 179.905 20.6498 95.0963 -17.613 -2.79604 -0.598158 64.982 -4.96522 -0.826311 23.7967 1.0533 4.16419 -1.27545 8.45533 -90.1531 9.96207 -2.61151 -0.0891149 -1.70626 -2.61293 0.0259825 -24.2606 -2.46392 -0.87034 -4.24793 -2.46392 -0.870339 93.9529 -24.4611 -100.456 57.363 9.63086 16.4725 -5.53645 -45.2997 -5.59586 -14.2319 2.37592 -25.0614 -87.023 -34.8082 80.1646 -23.8301 -7.90986 -62.8912 -9.68603 29.7269 -0.116659 15.8543 -4.16912 -27.503 -22.9522 6.97395 -2.70015 -5.91193 6.83841 4.40889 
